<?xml version="1.0" encoding="utf-8"?>
<!-- Generator: Adobe Illustrator 22.0.1, SVG Export Plug-In . SVG Version: 6.00 Build 0)  -->
<svg version="1.1" id="Capa_1" xmlns="http://www.w3.org/2000/svg" xmlns:xlink="http://www.w3.org/1999/xlink" x="0px" y="0px"
	 viewBox="0 0 147.4 56.8" style="enable-background:new 0 0 147.4 56.8;" xml:space="preserve">
<style type="text/css">
	.st0{fill:none;}
	.st1{fill:#C1272D;}
	.st2{fill:#B3252A;}
	.st3{fill:#FFFFFF;}
</style>
<g>
	<g>
		<g>
			<path class="st0" d="M36.1,13.7c-1-0.8-2.1-1.3-3.3-1.7c-1.2-0.4-2.5-0.6-3.9-0.6c-1.9,0-3.6,0.3-5.2,1c-1.5,0.7-2.8,1.6-3.9,2.8
				c-1.1,1.2-1.9,2.6-2.4,4.2c-0.6,1.6-0.8,3.3-0.8,5.2c0,1.8,0.3,3.5,0.8,5.1c0.5,1.3,1.1,2.5,1.9,3.5l3.8-3.8
				c-0.3-0.6-0.5-1.2-0.7-1.8c-0.2-1-0.4-2-0.4-3.1c0-1.1,0.1-2.2,0.4-3.2c0.2-1,0.6-1.9,1.2-2.8c0.5-0.8,1.2-1.4,2.1-1.9
				c0.9-0.5,1.9-0.7,3.2-0.7c0.7,0,1.3,0.1,1.9,0.3c0.6,0.2,1.2,0.5,1.7,0.9c0.5,0.4,0.9,0.9,1.2,1.4c0,0,0.1,0.1,0.1,0.1l3.7-3.7
				C37.1,14.6,36.6,14.1,36.1,13.7z"/>
			<path class="st0" d="M33.8,18.9c0.3,0.5,0.4,1,0.5,1.5h5.3c-0.2-1.4-0.6-2.7-1.2-3.9c-0.3-0.5-0.6-0.9-0.9-1.4c0,0,0,0,0-0.1
				L33.8,18.9C33.8,18.8,33.8,18.9,33.8,18.9z"/>
			<path class="st0" d="M19.4,33.3c0.1,0.2,0.3,0.3,0.4,0.5c1.1,1.2,2.3,2.1,3.9,2.8c1.5,0.7,3.3,1,5.2,1c1.5,0,3-0.2,4.2-0.7
				c1.3-0.5,2.4-1.1,3.4-2c1-0.9,1.7-2,2.3-3.2c0.6-1.3,0.9-2.7,1.1-4.2h-5.3c-0.2,1.7-0.8,3-1.7,4.1c-0.9,1-2.3,1.5-3.9,1.5
				c-1.2,0-2.3-0.2-3.2-0.7c-0.9-0.5-1.6-1.1-2.1-1.9c-0.2-0.3-0.3-0.5-0.5-0.8c0,0,0,0,0-0.1L19.4,33.3
				C19.4,33.3,19.4,33.3,19.4,33.3z"/>
			<path class="st1" d="M49.8,46V3h-0.1L37.5,15.1c0,0,0,0,0,0.1c0.3,0.4,0.7,0.9,0.9,1.4c0.6,1.1,1,2.4,1.2,3.9h-5.3
				c-0.1-0.5-0.3-1.1-0.5-1.5c0,0,0,0,0-0.1L23.1,29.5c0,0,0,0,0,0.1c0.1,0.3,0.3,0.5,0.5,0.8c0.5,0.8,1.2,1.4,2.1,1.9
				c0.9,0.5,1.9,0.7,3.2,0.7c1.7,0,3-0.5,3.9-1.5c0.9-1,1.5-2.4,1.7-4.1h5.3c-0.1,1.6-0.5,3-1.1,4.2c-0.6,1.3-1.4,2.3-2.3,3.2
				c-1,0.9-2.1,1.6-3.4,2c-1.3,0.5-2.7,0.7-4.2,0.7c-1.9,0-3.6-0.3-5.2-1c-1.5-0.7-2.8-1.6-3.9-2.8c-0.1-0.2-0.3-0.3-0.4-0.5
				c0,0,0,0,0-0.1L6.7,45.9V46H49.8z"/>
			<path class="st2" d="M17.4,29.7c-0.6-1.6-0.8-3.3-0.8-5.1c0-1.9,0.3-3.6,0.8-5.2c0.6-1.6,1.4-3,2.4-4.2c1.1-1.2,2.3-2.1,3.9-2.8
				c1.5-0.7,3.3-1,5.2-1c1.4,0,2.7,0.2,3.9,0.6c1.2,0.4,2.3,1,3.3,1.7c0.5,0.4,1,0.9,1.4,1.4L49.6,3H20L6.7,16.3v29.6l12.7-12.7
				C18.5,32.2,17.9,31,17.4,29.7z"/>
			<path class="st1" d="M32.5,17.3c-0.5-0.4-1-0.7-1.7-0.9c-0.6-0.2-1.3-0.3-1.9-0.3c-1.2,0-2.3,0.2-3.2,0.7
				c-0.9,0.5-1.6,1.1-2.1,1.9c-0.5,0.8-0.9,1.7-1.2,2.8c-0.2,1-0.4,2.1-0.4,3.2c0,1.1,0.1,2.1,0.4,3.1c0.2,0.6,0.4,1.3,0.7,1.8
				l10.7-10.7c0,0-0.1-0.1-0.1-0.1C33.4,18.1,33,17.7,32.5,17.3z"/>
			<g>
				<path class="st3" d="M48.9,45.1H7.6V16.7L20.4,3.8h28.5V45.1z M7.8,45h40.9V4H20.5L7.8,16.7V45z"/>
			</g>
		</g>
		<g>
			<path class="st0" d="M65.3,33.8c1.1,1.2,2.3,2.1,3.9,2.8c1.5,0.7,3.3,1,5.2,1c1.2,0,2.4-0.3,3.6-0.8c1.2-0.5,2.3-1.4,3.3-2.6
				l0.6,2.8h3.5V23.5H74.8v4.1h5.5c-0.2,1.8-0.7,3.1-1.7,4c-1,0.9-2.4,1.4-4.2,1.4c-1.2,0-2.3-0.2-3.2-0.7c-0.9-0.5-1.6-1.1-2.1-1.9
				c-0.2-0.3-0.3-0.5-0.5-0.8l-3.8,3.8C65,33.5,65.2,33.7,65.3,33.8z"/>
			<path class="st0" d="M81.4,13.7c-1-0.7-2.1-1.3-3.3-1.7c-1.2-0.4-2.4-0.6-3.7-0.6c-1.9,0-3.6,0.3-5.2,1c-1.5,0.7-2.8,1.6-3.9,2.8
				c-1.1,1.2-1.9,2.6-2.4,4.2c-0.6,1.6-0.8,3.3-0.8,5.2c0,1.8,0.3,3.5,0.8,5.1c0.5,1.3,1.1,2.5,2,3.6v0l3.8-3.8v0
				c-0.3-0.6-0.5-1.2-0.7-1.9c-0.2-1-0.4-2-0.4-3.1c0-1.1,0.1-2.2,0.4-3.2c0.2-1,0.6-1.9,1.2-2.8c0.5-0.8,1.2-1.4,2.1-1.9
				c0.9-0.5,1.9-0.7,3.2-0.7c1.3,0,2.5,0.4,3.4,1.1c0.6,0.5,1.1,1.1,1.5,1.9v0l3.7-3.7v0C82.5,14.7,82,14.1,81.4,13.7z"/>
			<path class="st0" d="M79.7,20.2h5.3c-0.1-1.4-0.5-2.7-1.2-3.8c-0.2-0.4-0.5-0.8-0.8-1.2l-3.7,3.7C79.4,19.3,79.6,19.8,79.7,20.2z
				"/>
			<path class="st1" d="M77.8,17.1c-0.9-0.7-2.1-1.1-3.4-1.1c-1.2,0-2.3,0.2-3.2,0.7c-0.9,0.5-1.6,1.1-2.1,1.9
				c-0.5,0.8-0.9,1.7-1.2,2.8c-0.2,1-0.4,2.1-0.4,3.2c0,1.1,0.1,2.1,0.4,3.1c0.2,0.7,0.4,1.3,0.7,1.9v0l10.6-10.6v0
				C78.9,18.2,78.4,17.5,77.8,17.1z"/>
			<path class="st1" d="M64.9,33.3c-0.8-1-1.5-2.2-2-3.6c-0.6-1.6-0.8-3.3-0.8-5.1c0-1.9,0.3-3.6,0.8-5.2c0.6-1.6,1.4-3,2.4-4.2
				c1.1-1.2,2.3-2.1,3.9-2.8c1.5-0.7,3.3-1,5.2-1c1.3,0,2.5,0.2,3.7,0.6c1.2,0.4,2.3,1,3.3,1.7c0.6,0.5,1.1,1,1.6,1.6v0L95.2,3H52.2
				V46L64.9,33.3L64.9,33.3z"/>
			<path class="st1" d="M95.2,3L83,15.2c0.3,0.4,0.6,0.8,0.8,1.2c0.6,1.1,1,2.4,1.2,3.8h-5.3c-0.1-0.5-0.3-0.9-0.4-1.3L68.7,29.5
				c0.1,0.3,0.3,0.6,0.5,0.8c0.5,0.8,1.2,1.4,2.1,1.9c0.9,0.5,1.9,0.7,3.2,0.7c1.8,0,3.2-0.5,4.2-1.4c1-0.9,1.6-2.3,1.7-4h-5.5v-4.1
				h10.5V37h-3.5l-0.6-2.8c-1,1.3-2.1,2.1-3.3,2.6c-1.2,0.5-2.4,0.8-3.6,0.8c-1.9,0-3.6-0.3-5.2-1c-1.5-0.7-2.8-1.6-3.9-2.8
				c-0.2-0.2-0.3-0.4-0.4-0.5L52.2,46h43.1V3z"/>
			<g>
				<path class="st3" d="M94.4,45.1H53.1V3.8h41.3V45.1z M53.2,45h40.9V4H53.2V45z"/>
			</g>
		</g>
		<g>
			<polygon class="st0" points="113.3,11.4 107.4,11.4 113.5,30.2 117.8,25.8 			"/>
			<polygon class="st0" points="131,11.4 125.1,11.4 121.7,22 130.4,13.3 			"/>
			<polygon class="st0" points="122.3,37.6 130.4,13.3 121.7,22 119.2,29.8 119.1,29.8 117.8,25.8 113.5,30.2 115.8,37.6 			"/>
			<polygon class="st1" points="97.7,46 113.5,30.2 107.4,11.4 113.3,11.4 117.8,25.8 121.7,22 125.1,11.4 131,11.4 130.4,13.3 
				140.7,3 97.7,3 			"/>
			<g>
				<polygon class="st2" points="119.2,29.8 121.7,22 117.8,25.8 119.1,29.8 				"/>
				<polygon class="st2" points="122.3,37.6 115.8,37.6 113.5,30.2 97.7,46 127.4,46 140.7,32.7 140.7,3 130.4,13.3 				"/>
			</g>
			<g>
				<path class="st3" d="M127,45.1H98.5V3.8h41.3v28.5L127,45.1z M98.7,45h28.2l12.7-12.7V4H98.7V45z"/>
			</g>
		</g>
	</g>
	<g>
		<path class="st1" d="M29.8,50.9c0.4,0,0.8,0.1,1,0.4c0.2,0.2,0.3,0.6,0.3,1.1c0,0.5-0.1,0.9-0.3,1.1c-0.2,0.2-0.6,0.4-1,0.4h-1
			v-2.9H29.8z M29.7,53.6c0.2,0,0.4,0,0.5-0.1c0.2,0,0.3-0.1,0.4-0.2c0.1-0.1,0.2-0.2,0.2-0.4c0-0.2,0.1-0.3,0.1-0.6
			c0-0.2,0-0.4-0.1-0.6c0-0.2-0.1-0.3-0.2-0.4c-0.1-0.1-0.2-0.2-0.4-0.2c-0.2,0-0.3-0.1-0.5-0.1h-0.6v2.5H29.7z"/>
		<path class="st1" d="M34.8,50.9v2.9h-0.3v-2.9H34.8z"/>
		<path class="st1" d="M38.5,53.2c0,0.1,0.1,0.2,0.2,0.2c0.1,0.1,0.2,0.1,0.3,0.1c0.1,0,0.2,0,0.4,0c0.1,0,0.2,0,0.3,0
			c0.1,0,0.2-0.1,0.3-0.1c0.1,0,0.1-0.1,0.2-0.2c0.1-0.1,0.1-0.2,0.1-0.3c0-0.1,0-0.2-0.1-0.2c0-0.1-0.1-0.1-0.1-0.2
			c-0.1,0-0.1-0.1-0.2-0.1c-0.1,0-0.1,0-0.2-0.1l-0.7-0.2c-0.1,0-0.2,0-0.2-0.1c-0.1,0-0.2-0.1-0.2-0.1c-0.1-0.1-0.1-0.1-0.1-0.2
			c0-0.1-0.1-0.2-0.1-0.3c0-0.1,0-0.2,0-0.3c0-0.1,0.1-0.2,0.2-0.3c0.1-0.1,0.2-0.2,0.3-0.2c0.1-0.1,0.3-0.1,0.5-0.1
			c0.1,0,0.3,0,0.4,0.1c0.1,0,0.2,0.1,0.3,0.2c0.1,0.1,0.2,0.2,0.2,0.3c0.1,0.1,0.1,0.2,0.1,0.4h-0.3c0-0.1,0-0.2-0.1-0.3
			c0-0.1-0.1-0.2-0.2-0.2s-0.2-0.1-0.3-0.1c-0.1,0-0.2,0-0.3,0c-0.1,0-0.2,0-0.3,0c-0.1,0-0.2,0.1-0.2,0.1c-0.1,0-0.1,0.1-0.2,0.2
			c0,0.1-0.1,0.2-0.1,0.3c0,0.1,0,0.1,0,0.2c0,0.1,0.1,0.1,0.1,0.1c0,0,0.1,0.1,0.1,0.1c0.1,0,0.1,0,0.2,0.1l0.7,0.2
			c0.1,0,0.2,0.1,0.3,0.1c0.1,0,0.2,0.1,0.2,0.1c0.1,0.1,0.1,0.1,0.2,0.2c0,0.1,0.1,0.2,0.1,0.3c0,0,0,0.1,0,0.1c0,0.1,0,0.1,0,0.2
			c0,0.1-0.1,0.1-0.1,0.2c0,0.1-0.1,0.1-0.2,0.2c-0.1,0.1-0.2,0.1-0.3,0.1c-0.1,0-0.3,0-0.4,0c-0.2,0-0.3,0-0.5-0.1
			c-0.1,0-0.3-0.1-0.4-0.2c-0.1-0.1-0.2-0.2-0.2-0.3c-0.1-0.1-0.1-0.3-0.1-0.5h0.3C38.4,53,38.4,53.1,38.5,53.2z"/>
		<path class="st1" d="M45.8,50.9v0.2H44v1.1h1.6v0.2H44v1.2h1.8v0.2h-2v-2.9H45.8z"/>
		<path class="st1" d="M49.4,50.9l1.7,2.5h0v-2.5h0.3v2.9h-0.3l-1.7-2.5h0v2.5h-0.3v-2.9H49.4z M50.8,50.3c0,0,0,0.1-0.1,0.1
			c0,0-0.1,0.1-0.1,0.1c0,0-0.1,0-0.1,0s-0.1,0-0.2,0c-0.1,0-0.1,0-0.1-0.1c0,0-0.1,0-0.1-0.1c0,0-0.1,0-0.1,0c-0.1,0-0.1,0-0.2,0.1
			c0,0-0.1,0.1-0.1,0.2h-0.2c0,0,0-0.1,0-0.1c0,0,0-0.1,0.1-0.1c0,0,0.1-0.1,0.1-0.1c0,0,0.1,0,0.1,0c0.1,0,0.1,0,0.2,0
			c0.1,0,0.1,0,0.1,0.1c0,0,0.1,0,0.1,0.1c0,0,0.1,0,0.1,0c0.1,0,0.1,0,0.1-0.1c0,0,0.1-0.1,0.1-0.1h0.2
			C50.9,50.2,50.9,50.2,50.8,50.3z"/>
		<path class="st1" d="M56,50.9l1.2,2.9h-0.3l-0.4-0.9h-1.3l-0.4,0.9h-0.3l1.2-2.9H56z M56.4,52.6l-0.6-1.5l-0.6,1.5H56.4z"/>
		<path class="st1" d="M61.3,50.9c0.4,0,0.8,0.1,1,0.4c0.2,0.2,0.3,0.6,0.3,1.1c0,0.5-0.1,0.9-0.3,1.1c-0.2,0.2-0.6,0.4-1,0.4h-1
			v-2.9H61.3z M61.2,53.6c0.2,0,0.4,0,0.5-0.1c0.2,0,0.3-0.1,0.4-0.2c0.1-0.1,0.2-0.2,0.2-0.4c0-0.2,0.1-0.3,0.1-0.6
			c0-0.2,0-0.4-0.1-0.6c0-0.2-0.1-0.3-0.2-0.4c-0.1-0.1-0.2-0.2-0.4-0.2c-0.2,0-0.3-0.1-0.5-0.1h-0.6v2.5H61.2z"/>
		<path class="st1" d="M66,51.7c0.1-0.2,0.1-0.3,0.3-0.5c0.1-0.1,0.3-0.3,0.4-0.3c0.2-0.1,0.4-0.1,0.6-0.1c0.2,0,0.4,0,0.6,0.1
			c0.2,0.1,0.3,0.2,0.4,0.3c0.1,0.1,0.2,0.3,0.3,0.5c0.1,0.2,0.1,0.4,0.1,0.6c0,0.2,0,0.4-0.1,0.6s-0.1,0.3-0.3,0.5
			c-0.1,0.1-0.3,0.3-0.4,0.3c-0.2,0.1-0.4,0.1-0.6,0.1c-0.2,0-0.4,0-0.6-0.1c-0.2-0.1-0.3-0.2-0.4-0.3c-0.1-0.1-0.2-0.3-0.3-0.5
			c-0.1-0.2-0.1-0.4-0.1-0.6C65.9,52.1,65.9,51.9,66,51.7z M66.2,52.8c0,0.2,0.1,0.3,0.2,0.4c0.1,0.1,0.2,0.2,0.3,0.3
			c0.1,0.1,0.3,0.1,0.5,0.1c0.2,0,0.4,0,0.5-0.1c0.1-0.1,0.3-0.2,0.3-0.3c0.1-0.1,0.2-0.3,0.2-0.4c0-0.2,0.1-0.3,0.1-0.5
			c0-0.2,0-0.3-0.1-0.5c0-0.2-0.1-0.3-0.2-0.4c-0.1-0.1-0.2-0.2-0.3-0.3c-0.1-0.1-0.3-0.1-0.5-0.1c-0.2,0-0.4,0-0.5,0.1
			c-0.1,0.1-0.3,0.2-0.3,0.3c-0.1,0.1-0.2,0.3-0.2,0.4c0,0.2-0.1,0.3-0.1,0.5C66.1,52.5,66.2,52.6,66.2,52.8z"/>
		<path class="st1" d="M73.3,50.9c0.1,0,0.2,0,0.3,0c0.1,0,0.2,0.1,0.3,0.1c0.1,0.1,0.1,0.1,0.2,0.2c0,0.1,0.1,0.2,0.1,0.3
			c0,0.2,0,0.3-0.1,0.5c-0.1,0.1-0.2,0.2-0.4,0.3v0c0.1,0,0.2,0,0.2,0.1c0.1,0,0.1,0.1,0.2,0.1c0,0.1,0.1,0.1,0.1,0.2
			c0,0.1,0,0.2,0,0.2c0,0,0,0.1,0,0.2c0,0.1,0,0.1,0,0.2s0,0.1,0,0.2c0,0.1,0,0.1,0.1,0.2H74c0,0,0-0.1,0-0.1c0,0,0-0.1,0-0.1
			c0,0,0-0.1,0-0.1c0,0,0-0.1,0-0.1c0-0.1,0-0.2,0-0.3s0-0.2-0.1-0.3c0-0.1-0.1-0.1-0.2-0.2c-0.1,0-0.2-0.1-0.3-0.1h-1.1v1.3H72
			v-2.9H73.3z M73.3,52.2c0.1,0,0.2,0,0.2,0c0.1,0,0.1-0.1,0.2-0.1c0.1,0,0.1-0.1,0.1-0.2c0-0.1,0.1-0.2,0.1-0.2
			c0-0.2-0.1-0.3-0.2-0.4c-0.1-0.1-0.3-0.2-0.5-0.2h-1v1.2H73.3z"/>
		<path class="st1" d="M83.9,53.8l0-0.5h0c0,0.1-0.1,0.2-0.2,0.3c-0.1,0.1-0.2,0.1-0.2,0.2c-0.1,0-0.2,0.1-0.3,0.1
			c-0.1,0-0.2,0-0.3,0c-0.2,0-0.4,0-0.6-0.1c-0.2-0.1-0.3-0.2-0.4-0.3s-0.2-0.3-0.3-0.5c-0.1-0.2-0.1-0.4-0.1-0.6
			c0-0.2,0-0.4,0.1-0.6c0.1-0.2,0.1-0.3,0.3-0.5c0.1-0.1,0.3-0.3,0.4-0.3c0.2-0.1,0.4-0.1,0.6-0.1c0.2,0,0.3,0,0.4,0.1
			c0.1,0,0.3,0.1,0.4,0.2c0.1,0.1,0.2,0.2,0.3,0.3c0.1,0.1,0.1,0.3,0.2,0.4h-0.3c0-0.1,0-0.2-0.1-0.3c0-0.1-0.1-0.2-0.2-0.2
			c-0.1-0.1-0.2-0.1-0.3-0.2c-0.1,0-0.2-0.1-0.4-0.1c-0.2,0-0.4,0-0.5,0.1c-0.1,0.1-0.3,0.2-0.3,0.3c-0.1,0.1-0.2,0.3-0.2,0.4
			c0,0.2-0.1,0.3-0.1,0.5c0,0.2,0,0.3,0.1,0.5c0,0.2,0.1,0.3,0.2,0.4c0.1,0.1,0.2,0.2,0.3,0.3c0.1,0.1,0.3,0.1,0.5,0.1
			c0.2,0,0.3,0,0.4-0.1c0.1-0.1,0.2-0.1,0.3-0.2c0.1-0.1,0.2-0.2,0.2-0.3c0-0.1,0.1-0.3,0.1-0.4h-1v-0.2h1.2v1.5H83.9z"/>
		<path class="st1" d="M88.9,50.9c0.1,0,0.2,0,0.3,0c0.1,0,0.2,0.1,0.3,0.1c0.1,0.1,0.1,0.1,0.2,0.2c0,0.1,0.1,0.2,0.1,0.3
			c0,0.2,0,0.3-0.1,0.5c-0.1,0.1-0.2,0.2-0.4,0.3v0c0.1,0,0.2,0,0.2,0.1c0.1,0,0.1,0.1,0.2,0.1c0,0.1,0.1,0.1,0.1,0.2
			c0,0.1,0,0.2,0,0.2c0,0,0,0.1,0,0.2c0,0.1,0,0.1,0,0.2s0,0.1,0,0.2c0,0.1,0,0.1,0.1,0.2h-0.3c0,0,0-0.1,0-0.1c0,0,0-0.1,0-0.1
			c0,0,0-0.1,0-0.1c0,0,0-0.1,0-0.1c0-0.1,0-0.2,0-0.3c0-0.1,0-0.2-0.1-0.3c0-0.1-0.1-0.1-0.2-0.2c-0.1,0-0.2-0.1-0.3-0.1h-1.1v1.3
			h-0.3v-2.9H88.9z M88.9,52.2c0.1,0,0.2,0,0.2,0c0.1,0,0.1-0.1,0.2-0.1c0.1,0,0.1-0.1,0.1-0.2s0.1-0.2,0.1-0.2
			c0-0.2-0.1-0.3-0.2-0.4c-0.1-0.1-0.3-0.2-0.5-0.2h-1v1.2H88.9z"/>
		<path class="st1" d="M94.3,50.9l1.2,2.9h-0.3l-0.4-0.9h-1.3l-0.4,0.9h-0.3l1.2-2.9H94.3z M94.7,52.6l-0.6-1.5l-0.6,1.5H94.7z
			 M93.9,50.6l0.4-0.6h0.3l-0.5,0.6H93.9z"/>
		<path class="st1" d="M100.5,50.9v0.2h-1.6v1.1h1.4v0.2h-1.4v1.4h-0.3v-2.9H100.5z"/>
		<path class="st1" d="M104,50.9v2.9h-0.3v-2.9H104z"/>
		<path class="st1" d="M109.5,51.4c-0.1-0.1-0.1-0.2-0.2-0.2s-0.2-0.1-0.3-0.1c-0.1,0-0.2,0-0.3,0c-0.2,0-0.4,0-0.5,0.1
			c-0.1,0.1-0.3,0.2-0.3,0.3c-0.1,0.1-0.2,0.3-0.2,0.4s-0.1,0.3-0.1,0.5c0,0.2,0,0.3,0.1,0.5s0.1,0.3,0.2,0.4
			c0.1,0.1,0.2,0.2,0.3,0.3c0.1,0.1,0.3,0.1,0.5,0.1c0.1,0,0.3,0,0.4-0.1c0.1,0,0.2-0.1,0.3-0.2c0.1-0.1,0.1-0.2,0.2-0.3
			c0-0.1,0.1-0.2,0.1-0.4h0.3c0,0.2-0.1,0.3-0.1,0.5c-0.1,0.1-0.2,0.3-0.3,0.4c-0.1,0.1-0.2,0.2-0.4,0.2c-0.1,0.1-0.3,0.1-0.5,0.1
			c-0.2,0-0.4,0-0.6-0.1c-0.2-0.1-0.3-0.2-0.4-0.3c-0.1-0.1-0.2-0.3-0.3-0.5c-0.1-0.2-0.1-0.4-0.1-0.6c0-0.2,0-0.4,0.1-0.6
			c0.1-0.2,0.1-0.3,0.3-0.5c0.1-0.1,0.3-0.3,0.4-0.3c0.2-0.1,0.4-0.1,0.6-0.1c0.1,0,0.3,0,0.4,0.1c0.1,0,0.3,0.1,0.4,0.2
			c0.1,0.1,0.2,0.2,0.3,0.3c0.1,0.1,0.1,0.3,0.1,0.4h-0.3C109.6,51.6,109.6,51.5,109.5,51.4z"/>
		<path class="st1" d="M113.2,51.7c0.1-0.2,0.1-0.3,0.3-0.5c0.1-0.1,0.3-0.3,0.4-0.3c0.2-0.1,0.4-0.1,0.6-0.1c0.2,0,0.4,0,0.6,0.1
			c0.2,0.1,0.3,0.2,0.4,0.3c0.1,0.1,0.2,0.3,0.3,0.5c0.1,0.2,0.1,0.4,0.1,0.6c0,0.2,0,0.4-0.1,0.6c-0.1,0.2-0.1,0.3-0.3,0.5
			s-0.3,0.3-0.4,0.3c-0.2,0.1-0.4,0.1-0.6,0.1c-0.2,0-0.4,0-0.6-0.1c-0.2-0.1-0.3-0.2-0.4-0.3c-0.1-0.1-0.2-0.3-0.3-0.5
			c-0.1-0.2-0.1-0.4-0.1-0.6C113.1,52.1,113.1,51.9,113.2,51.7z M113.5,52.8c0,0.2,0.1,0.3,0.2,0.4c0.1,0.1,0.2,0.2,0.3,0.3
			c0.1,0.1,0.3,0.1,0.5,0.1c0.2,0,0.4,0,0.5-0.1c0.1-0.1,0.3-0.2,0.3-0.3c0.1-0.1,0.2-0.3,0.2-0.4c0-0.2,0.1-0.3,0.1-0.5
			c0-0.2,0-0.3-0.1-0.5c0-0.2-0.1-0.3-0.2-0.4c-0.1-0.1-0.2-0.2-0.3-0.3c-0.1-0.1-0.3-0.1-0.5-0.1c-0.2,0-0.4,0-0.5,0.1
			c-0.1,0.1-0.3,0.2-0.3,0.3c-0.1,0.1-0.2,0.3-0.2,0.4c0,0.2-0.1,0.3-0.1,0.5C113.4,52.5,113.4,52.6,113.5,52.8z"/>
	</g>
</g>
</svg>
